<svg width="8" height="16" viewBox="0 0 8 16" fill="none" xmlns="http://www.w3.org/2000/svg">
<g opacity="0.4" clip-path="url(#clip0_5_483)">
<path fill-rule="evenodd" clip-rule="evenodd" d="M1.5 3.5C2.32843 3.5 3 2.82843 3 2C3 1.17157 2.32843 0.5 1.5 0.5C0.671573 0.5 0 1.17157 0 2C0 2.82843 0.671573 3.5 1.5 3.5ZM6.5 3.5C7.32843 3.5 8 2.82843 8 2C8 1.17157 7.32843 0.5 6.5 0.5C5.67157 0.5 5 1.17157 5 2C5 2.82843 5.67157 3.5 6.5 3.5ZM3 8C3 8.82843 2.32843 9.5 1.5 9.5C0.671573 9.5 0 8.82843 0 8C0 7.17157 0.671573 6.5 1.5 6.5C2.32843 6.5 3 7.17157 3 8ZM6.5 9.5C7.32843 9.5 8 8.82843 8 8C8 7.17157 7.32843 6.5 6.5 6.5C5.67157 6.5 5 7.17157 5 8C5 8.82843 5.67157 9.5 6.5 9.5ZM3 14C3 14.8284 2.32843 15.5 1.5 15.5C0.671573 15.5 0 14.8284 0 14C0 13.1716 0.671573 12.5 1.5 12.5C2.32843 12.5 3 13.1716 3 14ZM6.5 15.5C7.32843 15.5 8 14.8284 8 14C8 13.1716 7.32843 12.5 6.5 12.5C5.67157 12.5 5 13.1716 5 14C5 14.8284 5.67157 15.5 6.5 15.5Z" fill="#6B7785"/>
</g>
<defs>
<clipPath id="clip0_5_483">
<rect width="8" height="15" fill="white" transform="translate(0 0.5)"/>
</clipPath>
</defs>
</svg>
