<svg width="40" height="16" viewBox="0 0 40 16" fill="none" xmlns="http://www.w3.org/2000/svg">
<path d="M10.7943 13.5075C11.9436 13.5075 12.8988 12.8358 13.3018 12.0448V13.3433H15.451V2H13.3018V6.70149C12.8689 5.91045 12.0928 5.35821 10.8391 5.35821C8.88386 5.35821 7.40625 6.86567 7.40625 9.43284V9.55224C7.40625 12.1493 8.89879 13.5075 10.7943 13.5075ZM11.4361 11.8209C10.3615 11.8209 9.61521 11.0597 9.61521 9.50746V9.38806C9.61521 7.83582 10.2868 7.01493 11.4958 7.01493C12.6749 7.01493 13.3615 7.80597 13.3615 9.35821V9.47761C13.3615 11.0597 12.5704 11.8209 11.4361 11.8209Z" fill="#121A24"/>
<path d="M18.9767 13.5075C20.2006 13.5075 20.8871 13.0299 21.3349 12.403V13.3433H23.4394V8.25373C23.4394 6.13433 22.0812 5.35821 20.1707 5.35821C18.2603 5.35821 16.7976 6.1791 16.6632 8.02985H18.708C18.7976 7.35821 19.1856 6.92537 20.0364 6.92537C21.0215 6.92537 21.305 7.43284 21.305 8.35821V8.67164H20.4244C18.0364 8.67164 16.3647 9.35821 16.3647 11.1791C16.3647 12.8209 17.5588 13.5075 18.9767 13.5075ZM19.6185 12C18.8274 12 18.4841 11.6269 18.4841 11.0597C18.4841 10.2239 19.2155 9.95522 20.4692 9.95522H21.305V10.6119C21.305 11.4776 20.5737 12 19.6185 12Z" fill="#121A24"/>
<path d="M24.8235 13.3433H26.9728V5.53731H24.8235V13.3433ZM25.8832 4.47761C26.5847 4.47761 27.122 3.97015 27.122 3.29851C27.122 2.62687 26.5847 2.1194 25.8832 2.1194C25.1967 2.1194 24.6593 2.62687 24.6593 3.29851C24.6593 3.97015 25.1967 4.47761 25.8832 4.47761Z" fill="#121A24"/>
<path d="M28.4882 13.3433H30.6375V2H28.4882V13.3433Z" fill="#121A24"/>
<path d="M35.2817 16L39.4958 5.53731H37.4355L35.6749 10.2239L33.7794 5.53731H31.4511L34.5762 12.5977L33.189 16H35.2817Z" fill="#121A24"/>
<path d="M0 16H2.09375L8.53831 0H6.49578L0 16Z" fill="#121A24"/>
</svg>
