<svg width="24" height="24" viewBox="0 0 24 24" fill="none" xmlns="http://www.w3.org/2000/svg">
<path fill-rule="evenodd" clip-rule="evenodd" d="M8 7C8 5.94444 8.5 4 11 4C13.5 4 14 5.94444 14 7C14 9.5 13 11 11 11C9 11 8 9.5 8 7ZM11 12.5833C9.83333 12.5833 8.66666 12 8.66666 12C4.93333 13.6601 4 14.8499 4 18.17C4 18.6284 4.41787 19 4.93333 19L17.0651 18.9538L17.1187 18.9538C17.6054 18.9538 18 18.6028 18 18.17C18 18.1546 17.9995 18.1391 17.9985 18.1237C17.9985 14.8036 17.0667 13.6601 13.3333 12C13.3333 12 12.1667 12.5833 11 12.5833Z" fill="#121A24"/>
<mask id="path-3-outside-1_7_176" maskUnits="userSpaceOnUse" x="12" y="11" width="12" height="12" fill="black">
<rect fill="white" x="12" y="11" width="12" height="12"/>
<path fill-rule="evenodd" clip-rule="evenodd" d="M18 21C20.2091 21 22 19.2091 22 17C22 14.7909 20.2091 13 18 13C15.7909 13 14 14.7909 14 17C14 19.2091 15.7909 21 18 21ZM18 19.5C17.7239 19.5 17.5 19.2761 17.5 19V17.5H16C15.7239 17.5 15.5 17.2761 15.5 17C15.5 16.7239 15.7239 16.5 16 16.5H17.5V15C17.5 14.7239 17.7239 14.5 18 14.5C18.2761 14.5 18.5 14.7239 18.5 15V16.5H20C20.2761 16.5 20.5 16.7239 20.5 17C20.5 17.2761 20.2761 17.5 20 17.5H18.5V19C18.5 19.2761 18.2761 19.5 18 19.5Z"/>
</mask>
<path fill-rule="evenodd" clip-rule="evenodd" d="M18 21C20.2091 21 22 19.2091 22 17C22 14.7909 20.2091 13 18 13C15.7909 13 14 14.7909 14 17C14 19.2091 15.7909 21 18 21ZM18 19.5C17.7239 19.5 17.5 19.2761 17.5 19V17.5H16C15.7239 17.5 15.5 17.2761 15.5 17C15.5 16.7239 15.7239 16.5 16 16.5H17.5V15C17.5 14.7239 17.7239 14.5 18 14.5C18.2761 14.5 18.5 14.7239 18.5 15V16.5H20C20.2761 16.5 20.5 16.7239 20.5 17C20.5 17.2761 20.2761 17.5 20 17.5H18.5V19C18.5 19.2761 18.2761 19.5 18 19.5Z" fill="#121A24"/>
<path d="M17.5 17.5H19V16H17.5V17.5ZM17.5 16.5V18H19V16.5H17.5ZM18.5 16.5H17V18H18.5V16.5ZM18.5 17.5V16H17V17.5H18.5ZM20.5 17C20.5 18.3807 19.3807 19.5 18 19.5V22.5C21.0376 22.5 23.5 20.0376 23.5 17H20.5ZM18 14.5C19.3807 14.5 20.5 15.6193 20.5 17H23.5C23.5 13.9624 21.0376 11.5 18 11.5V14.5ZM15.5 17C15.5 15.6193 16.6193 14.5 18 14.5V11.5C14.9624 11.5 12.5 13.9624 12.5 17H15.5ZM18 19.5C16.6193 19.5 15.5 18.3807 15.5 17H12.5C12.5 20.0376 14.9624 22.5 18 22.5V19.5ZM16 19C16 20.1046 16.8954 21 18 21V18C18.5523 18 19 18.4477 19 19H16ZM16 17.5V19H19V17.5H16ZM16 19H17.5V16H16V19ZM14 17C14 18.1046 14.8954 19 16 19V16C16.5523 16 17 16.4477 17 17H14ZM16 15C14.8954 15 14 15.8954 14 17H17C17 17.5523 16.5523 18 16 18V15ZM17.5 15H16V18H17.5V15ZM16 15V16.5H19V15H16ZM18 13C16.8954 13 16 13.8954 16 15H19C19 15.5523 18.5523 16 18 16V13ZM20 15C20 13.8954 19.1046 13 18 13V16C17.4477 16 17 15.5523 17 15H20ZM20 16.5V15H17V16.5H20ZM20 15H18.5V18H20V15ZM22 17C22 15.8954 21.1046 15 20 15V18C19.4477 18 19 17.5523 19 17H22ZM20 19C21.1046 19 22 18.1046 22 17H19C19 16.4477 19.4477 16 20 16V19ZM18.5 19H20V16H18.5V19ZM20 19V17.5H17V19H20ZM18 21C19.1046 21 20 20.1046 20 19H17C17 18.4477 17.4477 18 18 18V21Z" fill="#DAA6C3" mask="url(#path-3-outside-1_7_176)"/>
</svg>
