<svg width="32" height="32" viewBox="0 0 32 32" fill="none" xmlns="http://www.w3.org/2000/svg">
<path d="M27.3738 6.04048C27.7643 5.64996 27.7643 5.01679 27.3738 4.62627C26.9832 4.23574 26.3501 4.23574 25.9596 4.62627L19.4891 11.0967L19.4882 11.0956L8.58375 22H8.58579L4.62623 25.9596C4.2357 26.3501 4.2357 26.9833 4.62623 27.3738C5.01675 27.7643 5.64992 27.7643 6.04044 27.3738L11.4142 22H17.3333C18.8061 22 20 20.8061 20 19.3334V13.4143L27.3738 6.04048Z" fill="white"/>
<path d="M17.7265 10.0288C17.5982 10.0099 17.4669 10 17.3333 10H6.66667C5.19391 10 4 11.1939 4 12.6667V19.3334C4 20.5304 4.78873 21.5432 5.87485 21.8805L17.7265 10.0288Z" fill="white"/>
<path d="M22 14.5988C22 14.2179 22.1629 13.8553 22.4475 13.6022L25.7808 10.6393C26.6407 9.87495 28 10.4854 28 11.6358V20.3642C28 21.5147 26.6407 22.1251 25.7808 21.3608L22.4475 18.3978C22.1629 18.1448 22 17.7821 22 17.4013V14.5988Z" fill="white"/>
</svg>
