<svg width="32" height="32" viewBox="0 0 32 32" fill="none" xmlns="http://www.w3.org/2000/svg">
<path d="M15.9999 4C18.1305 4 19.872 5.6657 19.9932 7.76587L11.9999 15.7591V8C11.9999 5.79086 13.7908 4 15.9999 4Z" fill="white"/>
<path d="M19.9999 13.4142L27.3737 6.04044C27.7642 5.64992 27.7642 5.01675 27.3737 4.62623C26.9832 4.2357 26.35 4.2357 25.9595 4.62623L4.62615 25.9596C4.23562 26.3501 4.23562 26.9832 4.62615 27.3738C5.01667 27.7643 5.64983 27.7643 6.04036 27.3738L10.9273 22.4868C12.0791 23.3341 13.481 23.8111 14.9999 23.9539V27C14.9999 27.5523 15.4476 28 15.9999 28C16.5522 28 16.9999 27.5523 16.9999 27V23.9539C18.7984 23.7848 20.4329 23.1471 21.6822 21.9811C23.1711 20.5914 23.9999 18.5567 23.9999 16C23.9999 15.4477 23.5522 15 22.9999 15C22.4476 15 21.9999 15.4477 21.9999 16C21.9999 18.11 21.3287 19.5753 20.3176 20.5189C19.295 21.4734 17.811 22 15.9999 22C14.5585 22 13.3243 21.6664 12.365 21.0491L13.968 19.4462C14.5635 19.7981 15.2581 20 15.9999 20C18.2091 20 19.9999 18.2091 19.9999 16V13.4142Z" fill="white"/>
<path d="M10.148 17.611C10.0517 17.1219 9.99992 16.5858 9.99992 16C9.99992 15.4477 9.5522 15 8.99992 15C8.44763 15 7.99992 15.4477 7.99992 16C7.99992 17.1959 8.18124 18.2775 8.52663 19.2324L10.148 17.611Z" fill="white"/>
</svg>
