<svg width="38" height="25" viewBox="0 0 38 25" fill="none" xmlns="http://www.w3.org/2000/svg">
<rect width="38" height="25" rx="4" fill="#CEB3CA"/>
<mask id="path-3-outside-1_58_739" maskUnits="userSpaceOnUse" x="11" y="8" width="16" height="9" fill="black">
<rect fill="white" x="11" y="8" width="16" height="9"/>
<path fill-rule="evenodd" clip-rule="evenodd" d="M13 9C12.4477 9 12 9.44772 12 10V15C12 15.5523 12.4477 16 13 16H20C20.5523 16 21 15.5523 21 15V10C21 9.44772 20.5523 9 20 9H13ZM22 11.6205C22 11.4427 22.0945 11.2782 22.2481 11.1886L25.2481 9.43863C25.5814 9.24419 26 9.48462 26 9.87052V15.1295C26 15.5154 25.5814 15.7558 25.2481 15.5614L22.2481 13.8114C22.0945 13.7218 22 13.5573 22 13.3795V11.6205Z"/>
</mask>
<path d="M22.2481 11.1886L22.7519 12.0524L22.7519 12.0524L22.2481 11.1886ZM25.2481 9.43863L25.7519 10.3024L25.2481 9.43863ZM25.2481 15.5614L24.7442 16.4251L25.2481 15.5614ZM22.2481 13.8114L21.7442 14.6751L21.7442 14.6751L22.2481 13.8114ZM13 10V10V8C11.8954 8 11 8.89543 11 10H13ZM13 15V10H11V15H13ZM13 15H11C11 16.1046 11.8954 17 13 17V15ZM20 15H13V17H20V15ZM20 15V17C21.1046 17 22 16.1046 22 15H20ZM20 10V15H22V10H20ZM20 10H22C22 8.89543 21.1046 8 20 8V10ZM13 10H20V8H13V10ZM21.7442 10.3248C21.2834 10.5937 21 11.087 21 11.6205H23C23 11.7984 22.9055 11.9628 22.7519 12.0524L21.7442 10.3248ZM24.7442 8.57485L21.7442 10.3248L22.7519 12.0524L25.7519 10.3024L24.7442 8.57485ZM27 9.87052C27 8.71283 25.7442 7.99152 24.7442 8.57485L25.7519 10.3024C25.4186 10.4969 25 10.2564 25 9.87052H27ZM27 15.1295V9.87052H25V15.1295H27ZM24.7442 16.4251C25.7442 17.0085 27 16.2872 27 15.1295H25C25 14.7436 25.4186 14.5031 25.7519 14.6976L24.7442 16.4251ZM21.7442 14.6751L24.7442 16.4251L25.7519 14.6976L22.7519 12.9476L21.7442 14.6751ZM21 13.3795C21 13.913 21.2834 14.4063 21.7442 14.6751L22.7519 12.9476C22.9055 13.0372 23 13.2016 23 13.3795H21ZM21 11.6205V13.3795H23V11.6205H21Z" fill="black" mask="url(#path-3-outside-1_58_739)"/>
</svg>
